
						<svg width="24" height="24" viewBox="0 0 24 24" fill="none" xmlns="http://www.w3.org/2000/svg">
<path d="M9.5 11.25C9.08579 11.25 8.75 11.5858 8.75 12C8.75 12.4142 9.08579 12.75 9.5 12.75V11.25ZM20 12.75C20.4142 12.75 20.75 12.4142 20.75 12C20.75 11.5858 20.4142 11.25 20 11.25V12.75ZM9.5 4.25C9.08579 4.25 8.75 4.58579 8.75 5C8.75 5.41421 9.08579 5.75 9.5 5.75V4.25ZM20 5.75C20.4142 5.75 20.75 5.41421 20.75 5C20.75 4.58579 20.4142 4.25 20 4.25V5.75ZM9.5 18.25C9.08579 18.25 8.75 18.5858 8.75 19C8.75 19.4142 9.08579 19.75 9.5 19.75V18.25ZM20 19.75C20.4142 19.75 20.75 19.4142 20.75 19C20.75 18.5858 20.4142 18.25 20 18.25V19.75ZM4.25 10C4.25 10.4142 4.58579 10.75 5 10.75C5.41421 10.75 5.75 10.4142 5.75 10H4.25ZM5.75 20C5.75 20.4142 6.08579 20.75 6.5 20.75C6.91421 20.75 7.25 20.4142 7.25 20H5.75ZM2.25 20C2.25 20.4142 2.58579 20.75 3 20.75C3.41421 20.75 3.75 20.4142 3.75 20H2.25ZM3.01 14.75C3.42421 14.75 3.76 14.4142 3.76 14C3.76 13.5858 3.42421 13.25 3.01 13.25V14.75ZM3 13.25C2.58579 13.25 2.25 13.5858 2.25 14C2.25 14.4142 2.58579 14.75 3 14.75V13.25ZM6.51 14.75C6.92421 14.75 7.26 14.4142 7.26 14C7.26 13.5858 6.92421 13.25 6.51 13.25V14.75ZM6.5 13.25C6.08579 13.25 5.75 13.5858 5.75 14C5.75 14.4142 6.08579 14.75 6.5 14.75V13.25ZM5.01 4.75C5.42421 4.75 5.76 4.41421 5.76 4C5.76 3.58579 5.42421 3.25 5.01 3.25V4.75ZM5 3.25C4.58579 3.25 4.25 3.58579 4.25 4C4.25 4.41421 4.58579 4.75 5 4.75V3.25ZM9.5 12.75H20V11.25H9.5V12.75ZM9.5 5.75H20V4.25H9.5V5.75ZM9.5 19.75H20V18.25H9.5V19.75ZM4.25 6V10H5.75V6H4.25ZM5.75 16V20H7.25V16H5.75ZM2.25 16V20H3.75V16H2.25ZM3.01 13.25H3V14.75H3.01V13.25ZM6.51 13.25H6.5V14.75H6.51V13.25ZM5.01 3.25H5V4.75H5.01V3.25Z" fill="#363538"></path>
</svg>
					