
						<svg width="24" height="24" viewBox="0 0 24 24" fill="none" xmlns="http://www.w3.org/2000/svg">
<path d="M9.79584 3.27187C9.57122 4.24464 9.22222 6.15117 9.07237 9.07237M9.79584 3.27187C10.5012 3.09431 11.2396 3 12 3C12.7315 3 13.4426 3.08727 14.1235 3.25196M9.79584 3.27187C7.77614 3.78032 6.02773 4.97141 4.81027 6.58549C4.09898 7.52848 3.56892 8.61586 3.27187 9.79584M9.07237 9.07237C9.0271 9.95489 9 10.93 9 12C9 13.0406 9.02563 13.9915 9.06868 14.8548M9.07237 9.07237C9.95489 9.0271 10.93 9 12 9C13.0406 9 13.9915 9.02563 14.8548 9.06868M9.07237 9.07237C6.15117 9.22222 4.24464 9.57122 3.27187 9.79584M14.1235 3.25196C14.3087 4.41765 14.6576 6.76716 14.8548 9.06868M14.1235 3.25196C16.1773 3.74873 17.9561 4.94996 19.1897 6.58549C19.901 7.52848 20.4311 8.61586 20.7281 9.79584M14.8548 9.06868C14.9424 10.0913 15 11.1044 15 12C15 12.875 14.945 13.8622 14.8608 14.8608M14.8548 9.06868C17.8171 9.21643 19.7473 9.56936 20.7281 9.79584M14.8608 14.8608C14.6648 17.1847 14.3106 19.5704 14.1235 20.748C13.4426 20.9127 12.7315 21 12 21C11.2396 21 10.5012 20.9057 9.79584 20.7281M14.8608 14.8608C17.1847 14.6648 19.5704 14.3106 20.748 14.1235C20.9127 13.4426 21 12.7315 21 12C21 11.2396 20.9057 10.5012 20.7281 9.79584M14.8608 14.8608C13.8622 14.945 12.875 15 12 15C11.1044 15 10.0913 14.9424 9.06868 14.8548M9.06868 14.8548C9.21643 17.8171 9.56936 19.7473 9.79584 20.7281M9.06868 14.8548C6.76716 14.6576 4.41765 14.3087 3.25196 14.1235M9.79584 20.7281C7.76883 20.2178 6.01508 19.02 4.79707 17.397C4.0763 16.4366 3.54313 15.3273 3.25196 14.1235M3.27187 9.79584C3.09431 10.5012 3 11.2396 3 12C3 12.7315 3.08727 13.4426 3.25196 14.1235M20.2426 17.4142L18.8284 18.8284M18.8284 18.8284L17.4142 20.2426M18.8284 18.8284L17.4142 17.4142M18.8284 18.8284L20.2426 20.2426" stroke="#363538" stroke-width="1.5" stroke-linecap="round" stroke-linejoin="round"></path>
</svg>
					